# AST/ASF file generated using VICON BodyLanguage
# -----------------------------------------------
:version 1.10
:name VICON
:units
  mass 1.0
  length 0.45
  angle deg
:documentation
   .ast/.asf automatically generated from VICON data using
   VICON BodyBuilder and BodyLanguage model FoxedUp or BRILLIANT.MOD
:root
   order TX TY TZ RX RY RZ
   axis XYZ
   position 0 0 0  
   orientation 0 0 0 
:bonedata
  begin
     id 1 
     name lhipjoint
     direction 0.561001 -0.76473 0.316963 
     length 2.4722 
     axis 0 0 0  XYZ
  end
  begin
     id 2 
     name lfemur
     direction 0.34202 -0.939693 0  
     length 7.59403  
     axis 0 0 20  XYZ
    dof rx ry rz
    limits (-160.0 20.0)
           (-70.0 70.0)
           (-60.0 70.0)
  end
  begin
     id 3 
     name ltibia
     direction 0.34202 -0.939693 0   
     length 7.89655   
     axis 0 0 20   XYZ
    dof rx
    limits (-10.0 170.0)
  end
  begin
     id 4 
     name lfoot
     direction 0.061296 -0.168409 0.98381   
     length 2.73287   
     axis -90 7.62852e-016 20   XYZ
    dof rx rz
    limits (-45.0 90.0)
           (-70.0 20.0)
  end
  begin
     id 5 
     name ltoes
     direction 1.53547e-011 -4.21984e-011 1   
     length 1.37057   
     axis -90 7.62852e-016 20   XYZ
    dof rx
    limits (-90.0 20.0)
  end
  begin
     id 6 
     name rhipjoint
     direction -0.559611 -0.765599 0.317323   
     length 2.46939  
     axis 0 0 0  XYZ 
  end
  begin
     id 7 
     name rfemur
     direction -0.34202 -0.939693 0   
     length 7.53712   
     axis 0 0 -20   XYZ
    dof rx ry rz
    limits (-160.0 20.0)
           (-70.0 70.0)
           (-70.0 60.0)
  end
  begin
     id 8 
     name rtibia
     direction -0.34202 -0.939693 0   
     length 8.12549   
     axis 0 0 -20   XYZ
    dof rx
    limits (-10.0 170.0)
 end
 begin
     id 9 
     name rfoot
     direction -0.066984 -0.184037 0.980634   
     length 2.67541  
     axis -90 -7.62852e-016 -20   XYZ
    dof rx rz
    limits (-45.0 90.0)
           (-20.0 70.0)
  end
  begin
     id 10 
     name rtoes
     direction -1.53549e-011 -4.21786e-011 1   
     length 1.34085   
     axis -90 -7.62852e-016 -20   XYZ
    dof rx
    limits (-90.0 20.0)
  end
  begin
     id 11 
     name lowerback
     direction -0.0522728 0.992594 -0.109658   
     length 2.05633   
     axis 0 0 0   XYZ
    dof rx ry rz
    limits (-20.0 45.0)
           (-30.0 30.0)
           (-30.0 30.0)
  end
  begin
     id 12 
     name upperback
     direction 0.00589338 0.999977 0.00335704   
     length 2.05845   
     axis 0 0 0   XYZ
    dof rx ry rz
    limits (-20.0 45.0)
           (-30.0 30.0)
           (-30.0 30.0)
  end
  begin
     id 13 
     name thorax
     direction 0.0292928 0.998059 0.0549487   
     length 2.09281   
     axis 0 0 0   XYZ
    dof rx ry rz
    limits (-20.0 45.0)
           (-30.0 30.0)
           (-30.0 30.0)
  end
  begin
     id 14 
     name lowerneck
     direction 0.0356368 0.980775 0.191858   
     length 1.84767   
     axis 0 0 0   XYZ
    dof rx ry rz
    limits (-20.0 45.0)
           (-30.0 30.0)
           (-30.0 30.0)
  end
  begin
     id 15 
     name upperneck
     direction -0.0227605 0.98931 -0.14404   
     length 1.89582   
     axis 0 0 0   XYZ
    dof rx ry rz
    limits (-20.0 45.0)
           (-30.0 30.0)
           (-30.0 30.0)
  end
  begin
     id 16
     name head
     direction -0.00932985 0.997511 -0.0698904  
     length 1.90213  
     axis 0 0 0   XYZ
    dof rx ry rz
    limits (-20.0 45.0)
           (-30.0 30.0)
           (-30.0 30.0)
  end
  begin
     id 17 
     name lclavicle
     direction 0.873442 0.479511 0.0846686  
     length 3.41193  
     axis 0 0 0   XYZ
    dof ry rz
    limits (-20.0 10.0)
           (0.0 20.0)
  end
  begin
     id 18 
     name lhumerus
     direction 1 -4.4897e-011 -5.62117e-018   
     length 5.59864   
     axis 180 -30 -90   XYZ
    dof rx ry rz
    limits (-60.0 90.0)
           (-90.0 90.0)
           (-90.0 90.0)
  end
  begin
     id 19
     name lradius
     direction 1 -4.48966e-011 -6.26295e-027   
     length 3.59542   
     axis 180 -30 -90   XYZ
    dof rx
    limits (-10.0 170.0)
  end
  begin
     id 20
     name lwrist
     direction 1 -4.48947e-011 -1.74096e-026   
     length 1.79771   
     axis 1.04567e-014 90 90   XYZ
    dof ry
    limits (-180.0 0.0)
 end
  begin
     id 21 
     name lhand
     direction 1 -4.49085e-011 -3.48469e-026   
     length 0.572014   
     axis 2.22196e-014 90 90   XYZ
    dof rx rz
    limits (-90.0 90.0)
           (-45.0 45.0)
  end
  begin
     id 22 
     name lfingers
     direction 1 -4.48884e-011 -6.96135e-026   
     length 0.461173   
     axis 4.44383e-014 90 90   XYZ
    dof rx
    limits (0.0 90.0)
  end
  begin
     id 23
     name lthumb
     direction 0.707107 -6.34976e-011 0.707107   
     length 0.662154   
     axis -90 45 -5.4397e-014   XYZ
    dof rx rz
    limits (-45.0 45.0)
           (-45.0 45.0)
  end
  begin
     id 24 
     name rclavicle
     direction -0.890242 0.443271 0.104786   
     length 3.46753  
     axis 0 0 0   XYZ 
    dof ry rz
    limits (-10.0 20.0)
           (-20.0 0.0)
  end
  begin
     id 25 
     name rhumerus
     direction -1 -4.48963e-011 -5.41723e-018  
     length 5.8094   
     axis 180 30 90   XYZ
    dof rx ry rz
    limits (-90.0 60.0)
           (-90.0 90.0)
           (-90.0 90.0)
  end
  begin
     id 26 
     name rradius
     direction -1 -4.48958e-011 -6.51059e-027   
     length 3.66953   
     axis 180 30 90   XYZ
    dof rx
    limits (-10.0 170.0)
  end
  begin
     id 27 
     name rwrist
     direction -1 -4.48975e-011 -1.74124e-026   
     length 1.83476   
     axis 1.04567e-014 -90 -90   XYZ
    dof ry
    limits (-180.0 0.0)
  end
  begin
     id 28
     name rhand
     direction -1 -4.49013e-011 -3.48326e-026   
     length 0.57843   
     axis 2.22196e-014 -90 -90   XYZ
    dof rx rz
    limits (-90.0 90.0)
           (-45.0 45.0)
  end
  begin
     id 29
     name rfingers
     direction -1 -4.49023e-011 -6.9669e-026   
     length 0.466345   
     axis 4.44383e-014 -90 -90   XYZ
    dof rx
    limits (0.0 90.0)
  end
  begin
     id 30
     name rthumb
     direction -0.707107 -6.34926e-011 0.707107   
     length 0.669581   
     axis -90 -45 5.4397e-014   XYZ
    dof rx rz
    limits (-45.0 45.0)
           (-45.0 45.0)
  end
:hierarchy
  begin
    root lhipjoint rhipjoint lowerback
    lhipjoint lfemur
    lfemur ltibia
    ltibia lfoot
    lfoot ltoes
    rhipjoint rfemur
    rfemur rtibia
    rtibia rfoot
    rfoot rtoes
    lowerback upperback
    upperback thorax
    thorax lowerneck lclavicle rclavicle
    lowerneck upperneck
    upperneck head
    lclavicle lhumerus
    lhumerus lradius
    lradius lwrist
    lwrist lhand lthumb
    lhand lfingers
    rclavicle rhumerus
    rhumerus rradius
    rradius rwrist
    rwrist rhand rthumb
    rhand rfingers
  end

#!OML:ASF H:\SkateBoarding\Project 1\Capture day 1\Session 1\Skater.ASF
:FULLY-SPECIFIED
:DEGREES
48
root 6.60698 17.5158 8.71128 178.071 5.405 177.426
lowerback 13.2494 0.920392 -6.61645
upperback 2.1218 0.521803 -0.398651
thorax -5.23179 0.483299 3.21566
lowerneck -26.6578 2.77835 4.5379
upperneck 15.4373 2.60535 -2.30885
head 9.28081 1.22255 -1.13664
rclavicle -9.56651e-015 1.25234e-014
rhumerus 31.6795 4.37092 -60.3213
rradius 83.0032
rwrist -10.4071
rhand 16.4595 -41.543
rfingers 7.12502
rthumb 41.2237 -66.3879
lclavicle -9.56651e-015 1.25234e-014
lhumerus 31.8128 2.80187 59.2956
lradius 82.5735
lwrist 8.28511
lhand 11.8414 49.2081
lfingers 7.12502
lthumb 36.8707 75.3059
rfemur -23.4416 -7.20057 9.4833
rtibia 49.3204
rfoot -15.397 15.2294
rtoes -11.047
lfemur -20.7208 8.71053 -13.0034
ltibia 45.883
lfoot -18.552 -9.96977
ltoes -10.897
49
root 6.607 17.5161 8.71202 178.072 5.39592 177.397
lowerback 13.2751 0.931903 -6.64357
upperback 2.10163 0.529033 -0.406125
thorax -5.26828 0.488501 3.2215
lowerneck -26.6932 2.75997 4.50798
upperneck 15.4945 2.58989 -2.30843
head 9.30587 1.21333 -1.13398
rclavicle 2.98177e-015 -2.98177e-014
rhumerus 31.6526 4.3626 -60.3217
rradius 83.0011
rwrist -10.4339
rhand 16.436 -41.5283
rfingers 7.12502
rthumb 41.2016 -66.3802
lclavicle 2.98177e-015 -2.98177e-014
lhumerus 31.7842 2.77436 59.3167
lradius 82.5871
lwrist 8.31894
lhand 11.8711 49.2112
lfingers 7.12502
lthumb 36.8988 75.3017
rfemur -23.4406 -7.24536 9.44868
rtibia 49.311
rfoot -15.4029 15.2273
rtoes -11.1895
lfemur -20.7188 8.70091 -13.0412
ltibia 45.8683
lfoot -18.5551 -9.95209
ltoes -10.9166
50
root 6.60838 17.5163 8.71332 178.075 5.40721 177.413
lowerback 13.2873 0.93959 -6.64481
upperback 2.09244 0.537233 -0.398699
thorax -5.28578 0.49299 3.2285
lowerneck -26.6764 2.75946 4.51165
upperneck 15.4928 2.59836 -2.35364
head 9.30353 1.21208 -1.14927
rclavicle 6.16232e-015 -2.18663e-015
rhumerus 31.6422 4.3639 -60.3313
rradius 83.0075
rwrist -10.4418
rhand 16.4842 -41.5287
rfingers 7.12502
rthumb 41.2468 -66.3661
lclavicle 6.16232e-015 -2.18663e-015
lhumerus 31.7696 2.76448 59.3319
lradius 82.5852
lwrist 8.33118
lhand 11.8737 49.2295
lfingers 7.12502
lthumb 36.9012 75.3194
rfemur -23.4448 -7.24271 9.47302
rtibia 49.2997
rfoot -15.3815 15.2376
rtoes -11.146
lfemur -20.716 8.71667 -13.0152
ltibia 45.8573
lfoot -18.5405 -9.96298
ltoes -10.8558
51
root 6.6088 17.5176 8.71372 178.075 5.39309 177.394
lowerback 13.2721 0.936234 -6.68321
upperback 2.0963 0.529193 -0.392458
thorax -5.27274 0.489366 3.25834
lowerneck -26.6512 2.7683 4.52171
upperneck 15.4684 2.61581 -2.39114
head 9.2921 1.2164 -1.16148
rclavicle 1.68222e-014 -2.127e-014
rhumerus 31.6682 4.38245 -60.3367
rradius 83.0031
rwrist -10.4399
rhand 16.4708 -41.5715
rfingers 7.12502
rthumb 41.2342 -66.413
lclavicle 1.68222e-014 -2.127e-014
lhumerus 31.7399 2.77434 59.3317
lradius 82.5862
lwrist 8.36289
lhand 11.8845 49.2162
lfingers 7.12502
lthumb 36.9115 75.3035
rfemur -23.4361 -7.28376 9.45088
rtibia 49.2889
rfoot -15.3557 15.2519
rtoes -11.1393
lfemur -20.7131 8.70507 -13.0372
ltibia 45.8467
lfoot -18.545 -9.96392
ltoes -10.8211
52
root 6.61029 17.5168 8.71511 178.071 5.40029 177.44
lowerback 13.2964 0.936927 -6.66158
upperback 2.08022 0.529812 -0.373888
thorax -5.30344 0.489975 3.26552
lowerneck -26.6207 2.77526 4.54147
upperneck 15.4715 2.63202 -2.44982
head 9.29 1.21821 -1.18296
rclavicle -1.14053e-014 -1.21259e-014
rhumerus 31.6574 4.41034 -60.3449
rradius 83.0032
rwrist -10.3822
rhand 16.4747 -41.5741
rfingers 7.12502
rthumb 41.238 -66.4144
lclavicle -1.14053e-014 -1.21259e-014
lhumerus 31.6933 2.76468 59.3222
lradius 82.593
lwrist 8.36972
lhand 11.8943 49.2752
lfingers 7.12502
lthumb 36.9207 75.3601
rfemur -23.4333 -7.28456 9.51306
rtibia 49.282
rfoot -15.3592 15.2431
rtoes -11.1854
lfemur -20.7123 8.70869 -12.9766
ltibia 45.8464
lfoot -18.5384 -9.94984
ltoes -10.8698
